  0
SECTION
  2
HEADER
  9
$ACADVER
  1
AC1014
  9
$HANDSEED
  5
FFFF
  9
$MEASUREMENT
 70
     1
  0
ENDSEC
  0
SECTION
  2
TABLES
  0
TABLE
  2
VPORT
  5
8
330
0
100
AcDbSymbolTable
 70
     4
  0
VPORT
  5
2E
330
8
100
AcDbSymbolTableRecord
100
AcDbViewportTableRecord
  2
*ACTIVE
 70
     0
 10
0.0
 20
0.0
 11
1.0
 21
1.0
 12
210.0
 22
148.5
 13
0.0
 23
0.0
 14
10.0
 24
10.0
 15
10.0
 25
10.0
 16
0.0
 26
0.0
 36
1.0
 17
0.0
 27
0.0
 37
0.0
 40
341.0
 41
1.24
 42
50.0
 43
0.0
 44
0.0
 50
0.0
 51
0.0
 71
     0
 72
   100
 73
     1
 74
     3
 75
     0
 76
     0
 77
     0
 78
     0
  0
ENDTAB
  0
TABLE
  2
LTYPE
  5
5
330
0
100
AcDbSymbolTable
 70
     1
  0
LTYPE
  5
14
330
5
100
AcDbSymbolTableRecord
100
AcDbLinetypeTableRecord
  2
BYBLOCK
 70
     0
  3

 72
    65
 73
     0
 40
0.0
  0
LTYPE
  5
15
330
5
100
AcDbSymbolTableRecord
100
AcDbLinetypeTableRecord
  2
BYLAYER
 70
     0
  3

 72
    65
 73
     0
 40
0.0
  0
LTYPE
  5
16
330
5
100
AcDbSymbolTableRecord
100
AcDbLinetypeTableRecord
  2
CONTINUOUS
 70
     0
  3
Solid line
 72
    65
 73
     0
 40
0.0
  0
ENDTAB
  0
TABLE
  2
LAYER
  5
2
100
AcDbSymbolTable
 70
1
  0
LAYER
  5
50
100
AcDbSymbolTableRecord
100
AcDbLayerTableRecord
  2
0
 70
0
  6
CONTINUOUS
  0
ENDTAB
  0
TABLE
  2
STYLE
  5
3
330
0
100
AcDbSymbolTable
 70
     1
  0
STYLE
  5
11
330
3
100
AcDbSymbolTableRecord
100
AcDbTextStyleTableRecord
  2
STANDARD
 70
     0
 40
0.0
 41
1.0
 50
0.0
 71
     0
 42
2.5
  3
txt
  4

  0
ENDTAB
  0
TABLE
  2
VIEW
  5
6
330
0
100
AcDbSymbolTable
 70
     0
  0
ENDTAB
  0
TABLE
  2
UCS
  5
7
330
0
100
AcDbSymbolTable
 70
     0
  0
ENDTAB
  0
TABLE
  2
APPID
  5
9
330
0
100
AcDbSymbolTable
 70
     2
  0
APPID
  5
12
330
9
100
AcDbSymbolTableRecord
100
AcDbRegAppTableRecord
  2
ACAD
 70
     0
  0
ENDTAB
  0
TABLE
  2
DIMSTYLE
  5
A
330
0
100
AcDbSymbolTable
 70
     1
  0
DIMSTYLE
105
27
330
A
100
AcDbSymbolTableRecord
100
AcDbDimStyleTableRecord
  2
ISO-25
 70
     0
  3

  4

  5

  6

  7

 40
1.0
 41
2.5
 42
0.625
 43
3.75
 44
1.25
 45
0.0
 46
0.0
 47
0.0
 48
0.0
140
2.5
141
2.5
142
0.0
143
0.03937007874016
144
1.0
145
0.0
146
1.0
147
0.625
 71
     0
 72
     0
 73
     0
 74
     0
 75
     0
 76
     0
 77
     1
 78
     8
170
     0
171
     3
172
     1
173
     0
174
     0
175
     0
176
     0
177
     0
178
     0
270
     2
271
     2
272
     2
273
     2
274
     3
340
11
275
     0
280
     0
281
     0
282
     0
283
     0
284
     8
285
     0
286
     0
287
     3
288
     0
  0
ENDTAB
  0
TABLE
  2
BLOCK_RECORD
  5
1
330
0
100
AcDbSymbolTable
 70
     1
  0
BLOCK_RECORD
  5
1F
330
1
100
AcDbSymbolTableRecord
100
AcDbBlockTableRecord
  2
*MODEL_SPACE
  0
BLOCK_RECORD
  5
1B
330
1
100
AcDbSymbolTableRecord
100
AcDbBlockTableRecord
  2
*PAPER_SPACE
  0
ENDTAB
  0
ENDSEC
  0
SECTION
  2
BLOCKS
  0
BLOCK
  5
20
330
1F
100
AcDbEntity
  8
0
100
AcDbBlockBegin
  2
*MODEL_SPACE
 70
     0
 10
0.0
 20
0.0
 30
0.0
  3
*MODEL_SPACE
  1

  0
ENDBLK
  5
21
330
1F
100
AcDbEntity
  8
0
100
AcDbBlockEnd
  0
BLOCK
  5
1C
330
1B
100
AcDbEntity
 67
     1
  8
0
100
AcDbBlockBegin
  2
*PAPER_SPACE
  1

  0
ENDBLK
  5
1D
330
1B
100
AcDbEntity
 67
     1
  8
0
100
AcDbBlockEnd
  0
ENDSEC
  0
SECTION
  2
ENTITIES
  0
LWPOLYLINE
  5
100
100
AcDbEntity
  8
0
 62
7
100
AcDbPolyline
 90
103
 70
0
 10
0.141111
 20
26.992103
 30
0.0
 10
0.154111
 20
27.400112
 30
0.0
 10
0.234111
 20
27.802109
 30
0.0
 10
0.378111
 20
28.184097
 30
0.0
 10
0.582111
 20
28.539104
 30
0.0
 10
0.842111
 20
28.855108
 30
0.0
 10
1.150111
 20
29.125110
 30
0.0
 10
1.497111
 20
29.340107
 30
0.0
 10
1.875111
 20
29.497107
 30
0.0
 10
3.810111
 20
30.073095
 30
0.0
 10
4.521111
 20
30.253096
 30
0.0
 10
5.766111
 20
30.568113
 30
0.0
 10
7.203111
 20
30.869103
 30
0.0
 10
7.742111
 20
30.982104
 30
0.0
 10
9.733111
 20
31.315098
 30
0.0
 10
9.915111
 20
31.337112
 30
0.0
 10
11.736111
 20
31.564103
 30
0.0
 10
12.650111
 20
31.640105
 30
0.0
 10
13.747111
 20
31.731094
 30
0.0
 10
15.397111
 20
31.799109
 30
0.0
 10
15.764111
 20
31.815196
 30
0.0
 10
17.782111
 20
31.815111
 30
0.0
 10
18.149111
 20
31.799025
 30
0.0
 10
19.799111
 20
31.731094
 30
0.0
 10
20.896111
 20
31.640105
 30
0.0
 10
21.811111
 20
31.564103
 30
0.0
 10
23.631111
 20
31.337112
 30
0.0
 10
23.813111
 20
31.315098
 30
0.0
 10
25.804111
 20
30.982104
 30
0.0
 10
26.343111
 20
30.869103
 30
0.0
 10
27.780111
 20
30.568113
 30
0.0
 10
29.025111
 20
30.253096
 30
0.0
 10
29.737112
 20
30.073095
 30
0.0
 10
31.671110
 20
29.497107
 30
0.0
 10
32.049110
 20
29.340107
 30
0.0
 10
32.397110
 20
29.125110
 30
0.0
 10
32.704111
 20
28.855108
 30
0.0
 10
32.964112
 20
28.539104
 30
0.0
 10
33.168110
 20
28.184097
 30
0.0
 10
33.312111
 20
27.802109
 30
0.0
 10
33.392110
 20
27.400112
 30
0.0
 10
33.405120
 20
26.992103
 30
0.0
 10
33.351112
 20
26.586098
 30
0.0
 10
32.883111
 20
24.623101
 30
0.0
 10
32.683111
 20
23.916107
 30
0.0
 10
32.334113
 20
22.680114
 30
0.0
 10
31.876111
 20
21.286106
 30
0.0
 10
31.705110
 20
20.762104
 30
0.0
 10
30.997110
 20
18.872090
 30
0.0
 10
30.926111
 20
18.703095
 30
0.0
 10
30.212112
 20
17.013092
 30
0.0
 10
29.820111
 20
16.183105
 30
0.0
 10
29.351111
 20
15.187114
 30
0.0
 10
28.585112
 20
13.724103
 30
0.0
 10
28.414111
 20
13.399095
 30
0.0
 10
27.405111
 20
11.651096
 30
0.0
 10
27.209111
 20
11.341103
 30
0.0
 10
26.325111
 20
9.946107
 30
0.0
 10
25.697111
 20
9.042092
 30
0.0
 10
25.175111
 20
8.288107
 30
0.0
 10
24.068111
 20
6.824108
 30
0.0
 10
23.957111
 20
6.678114
 30
0.0
 10
22.674111
 20
5.120107
 30
0.0
 10
22.306111
 20
4.710094
 30
0.0
 10
21.327111
 20
3.616088
 30
0.0
 10
20.431111
 20
2.695112
 30
0.0
 10
19.920111
 20
2.169106
 30
0.0
 10
18.453111
 20
0.782097
 30
0.0
 10
18.129111
 20
0.533092
 30
0.0
 10
17.769111
 20
0.340109
 30
0.0
 10
17.381111
 20
0.208113
 30
0.0
 10
16.978111
 20
0.141114
 30
0.0
 10
16.569111
 20
0.141114
 30
0.0
 10
16.165111
 20
0.208113
 30
0.0
 10
15.778111
 20
0.340109
 30
0.0
 10
15.417111
 20
0.533092
 30
0.0
 10
15.093111
 20
0.782097
 30
0.0
 10
13.627111
 20
2.169106
 30
0.0
 10
13.115111
 20
2.695112
 30
0.0
 10
12.219111
 20
3.616088
 30
0.0
 10
11.240111
 20
4.710094
 30
0.0
 10
10.873111
 20
5.120107
 30
0.0
 10
9.589111
 20
6.678114
 30
0.0
 10
9.479111
 20
6.824108
 30
0.0
 10
8.372111
 20
8.288107
 30
0.0
 10
7.849111
 20
9.042092
 30
0.0
 10
7.222111
 20
9.946107
 30
0.0
 10
6.337111
 20
11.341103
 30
0.0
 10
6.141111
 20
11.651096
 30
0.0
 10
5.132111
 20
13.399095
 30
0.0
 10
4.962111
 20
13.724103
 30
0.0
 10
4.196111
 20
15.187114
 30
0.0
 10
3.726111
 20
16.183105
 30
0.0
 10
3.334111
 20
17.013092
 30
0.0
 10
2.620111
 20
18.703095
 30
0.0
 10
2.549111
 20
18.872090
 30
0.0
 10
1.841111
 20
20.762104
 30
0.0
 10
1.670111
 20
21.286106
 30
0.0
 10
1.212111
 20
22.680114
 30
0.0
 10
0.863111
 20
23.916107
 30
0.0
 10
0.663111
 20
24.623101
 30
0.0
 10
0.195111
 20
26.586098
 30
0.0
 10
0.141111
 20
26.992103
 30
0.0
  0
ENDSEC
  0
SECTION
  2
OBJECTS
  0
DICTIONARY
  5
C
330
0
100
AcDbDictionary
  3
ACAD_GROUP
350
D
  3
ACAD_MLINESTYLE
350
17
  0
DICTIONARY
  5
D
330
C
100
AcDbDictionary
  0
DICTIONARY
  5
1A
330
C
100
AcDbDictionary
  0
DICTIONARY
  5
17
330
C
100
AcDbDictionary
  3
STANDARD
350
18
  0
DICTIONARY
  5
19
330
C
100
AcDbDictionary
  0
ENDSEC
  0
EOF
